<?xml version="1.0" encoding="utf-8"?>
<!-- Generator: Adobe Illustrator 24.1.0, SVG Export Plug-In . SVG Version: 6.00 Build 0)  -->
<svg version="1.1" id="Layer_1" xmlns="http://www.w3.org/2000/svg" xmlns:xlink="http://www.w3.org/1999/xlink" x="0px" y="0px"
	 viewBox="0 0 34 34" style="enable-background:new 0 0 34 34;" xml:space="preserve">
<style type="text/css">
	.st0{fill-rule:evenodd;clip-rule:evenodd;fill:#231F20;}
</style>
<g id="Page-2-_x2013_-UI-Elements">
	<g id="Social-Icons" transform="translate(-79.000000, 0.000000)">
		<g id="Instagram" transform="translate(79.531250, 0.702703)">
			<path id="Shape" class="st0" d="M21.7,16.6c0,2.8-2.2,5-5,5s-5-2.2-5-5c0-0.3,0-0.6,0.1-0.8H10v6.7c0,0.5,0.4,0.8,0.8,0.8h11.7
				c0.5,0,0.8-0.4,0.8-0.8v-6.7h-1.7C21.6,16.1,21.7,16.4,21.7,16.6L21.7,16.6z M16.7,20c1.8,0,3.3-1.5,3.3-3.3s-1.5-3.3-3.3-3.3
				s-3.3,1.5-3.3,3.3S14.8,20,16.7,20L16.7,20z M20.7,13.2h2c0.3,0,0.5-0.2,0.5-0.5v-2c0-0.3-0.2-0.5-0.5-0.5h-2
				c-0.3,0-0.5,0.2-0.5,0.5v2C20.2,12.9,20.4,13.2,20.7,13.2L20.7,13.2z M16.7,0.7c-8.8,0-16,7.2-16,16s7.2,16,16,16s16-7.2,16-16
				S25.5,0.7,16.7,0.7L16.7,0.7z M25,23.1c0,1-0.8,1.8-1.9,1.8h-13c-1,0-1.9-0.8-1.9-1.8V10.2c0-1,0.8-1.8,1.9-1.8h13
				c1,0,1.9,0.8,1.9,1.8V23.1L25,23.1z"/>
		</g>
	</g>
</g>
</svg>
