<?xml version="1.0" encoding="utf-8"?>
<!-- Generator: Adobe Illustrator 24.1.0, SVG Export Plug-In . SVG Version: 6.00 Build 0)  -->
<svg version="1.1" id="Layer_1" xmlns="http://www.w3.org/2000/svg" xmlns:xlink="http://www.w3.org/1999/xlink" x="0px" y="0px"
	 viewBox="0 0 34 34" style="enable-background:new 0 0 34 34;" xml:space="preserve">
<style type="text/css">
	.st0{fill-rule:evenodd;clip-rule:evenodd;fill:#231F20;}
</style>
<g id="Page-2-_x2013_-UI-Elements">
	<g id="Social-Icons" transform="translate(-158.000000, 0.000000)">
		<g id="LinkedIn" transform="translate(158.305060, 0.702703)">
			<path id="Shape" class="st0" d="M16.7,0.7c-8.8,0-16,7.2-16,16s7.2,16,16,16s16-7.2,16-16S25.5,0.7,16.7,0.7L16.7,0.7z
				 M12.7,23.3H9.5V12.9h3.2V23.3L12.7,23.3z M11.1,11.6c-1,0-1.7-0.7-1.7-1.6c0-0.9,0.7-1.6,1.7-1.6S12.8,9,12.9,10
				C12.9,10.9,12.2,11.6,11.1,11.6L11.1,11.6z M24.6,23.3h-3.2v-5.8c0-1.3-0.5-2.3-1.6-2.3c-0.9,0-1.4,0.6-1.7,1.2
				c-0.1,0.2-0.1,0.5-0.1,0.8v6h-3.2v-7.1c0-1.3,0-2.4-0.1-3.3h2.8l0.1,1.4h0.1c0.4-0.7,1.5-1.7,3.2-1.7c2.1,0,3.7,1.4,3.7,4.5V23.3
				L24.6,23.3z"/>
		</g>
	</g>
</g>
</svg>
