<?xml version="1.0" encoding="utf-8"?>
<!-- Generator: Adobe Illustrator 24.1.0, SVG Export Plug-In . SVG Version: 6.00 Build 0)  -->
<svg version="1.1" id="Layer_1" xmlns="http://www.w3.org/2000/svg" xmlns:xlink="http://www.w3.org/1999/xlink" x="0px" y="0px"
	 viewBox="0 0 34 34" style="enable-background:new 0 0 34 34;" xml:space="preserve">
<style type="text/css">
	.st0{fill-rule:evenodd;clip-rule:evenodd;fill:#231F20;}
</style>
<g id="Page-2-_x2013_-UI-Elements">
	<g id="Social-Icons" transform="translate(-198.000000, 0.000000)">
		<g id="Youtube" transform="translate(198.449405, 0.702703)">
			<path id="Shape" class="st0" d="M19.3,16.4l-3.7-1.7c-0.3-0.2-0.6,0-0.6,0.4v3.3c0,0.4,0.3,0.5,0.6,0.4l3.7-1.7
				C19.7,16.8,19.7,16.5,19.3,16.4L19.3,16.4z M16.7,0.7c-8.8,0-16,7.2-16,16s7.2,16,16,16s16-7.2,16-16S25.5,0.7,16.7,0.7L16.7,0.7
				z M16.7,23.1c-8.2,0-8.3-0.7-8.3-6.5s0.1-6.5,8.3-6.5s8.3,0.7,8.3,6.5S24.9,23.1,16.7,23.1L16.7,23.1z"/>
		</g>
	</g>
</g>
</svg>
